<svg id="Layer_1" data-name="Layer 1" xmlns="http://www.w3.org/2000/svg" viewBox="0 0 218 68"><defs><style>.cls-1,.cls-2{fill:#fff;}.cls-2,.cls-3{fill-rule:evenodd;}.cls-3,.cls-4{fill:#007bff;}</style></defs><path class="cls-1" d="M152.36,27.37a8.77,8.77,0,0,1,3.63.7,5.39,5.39,0,0,1,2.39,2,5.52,5.52,0,0,1,.84,3.07,5.58,5.58,0,0,1-.84,3.06,5.39,5.39,0,0,1-2.39,2,8.94,8.94,0,0,1-3.63.68h-3.17v4.38h-3.66V27.37Zm-.2,8.51a3.84,3.84,0,0,0,2.5-.7,2.55,2.55,0,0,0,.86-2,2.5,2.5,0,0,0-.86-2.05,3.78,3.78,0,0,0-2.5-.72h-3v5.51Z"/><path class="cls-1" d="M171.87,43.26l-3-4.43h-3.36v4.43h-3.65V27.37h6.83a8.77,8.77,0,0,1,3.63.7,5.44,5.44,0,0,1,2.39,2,5.51,5.51,0,0,1,.83,3.07,5.43,5.43,0,0,1-.85,3.06,5.33,5.33,0,0,1-2.39,1.95l3.54,5.11Zm-.06-10.12a2.5,2.5,0,0,0-.86-2.05,3.78,3.78,0,0,0-2.5-.72h-3V35.9h3a3.78,3.78,0,0,0,2.5-.72A2.55,2.55,0,0,0,171.81,33.14Z"/><path class="cls-1" d="M186,43.53a9.22,9.22,0,0,1-4.44-1.07,8,8,0,0,1-3.09-2.93,8.13,8.13,0,0,1-1.1-4.22,8,8,0,0,1,1.1-4.19,7.9,7.9,0,0,1,3.09-2.95A9.11,9.11,0,0,1,186,27.1a9,9,0,0,1,4.42,1.07,8,8,0,0,1,4.21,7.14,8,8,0,0,1-4.21,7.15A9.12,9.12,0,0,1,186,43.53Zm0-3.13a5.07,5.07,0,0,0,2.52-.64A4.64,4.64,0,0,0,190.32,38a5.67,5.67,0,0,0,0-5.27,4.46,4.46,0,0,0-1.76-1.79,5.16,5.16,0,0,0-5.05,0,4.64,4.64,0,0,0-1.78,1.79,5.83,5.83,0,0,0,0,5.27,4.83,4.83,0,0,0,1.78,1.81A5.11,5.11,0,0,0,186,40.4Z"/><path class="cls-1" d="M204.24,27.37a8.77,8.77,0,0,1,3.63.7,5.39,5.39,0,0,1,2.39,2,5.52,5.52,0,0,1,.84,3.07,5.58,5.58,0,0,1-.84,3.06,5.39,5.39,0,0,1-2.39,2,8.94,8.94,0,0,1-3.63.68h-3.17v4.38h-3.66V27.37Zm-.2,8.51a3.84,3.84,0,0,0,2.5-.7,2.55,2.55,0,0,0,.86-2,2.5,2.5,0,0,0-.86-2.05,3.78,3.78,0,0,0-2.5-.72h-3v5.51Z"/><path class="cls-2" d="M31.76,5.59,57.43,20.51V50.35L31.76,65.27,6.1,50.35V20.51ZM7.8,21.5V49.35l24,13.93,24-13.93V21.5l-24-13.93Z"/><path class="cls-3" d="M16,39a1.19,1.19,0,1,0,1.18,1.19A1.18,1.18,0,0,0,16,39Zm-2.88,1.19A2.88,2.88,0,1,1,16,43.11,2.89,2.89,0,0,1,13.14,40.21Z"/><path class="cls-3" d="M37.26,37.52a1.18,1.18,0,1,0,1.17,1.18A1.17,1.17,0,0,0,37.26,37.52ZM34.38,38.7a2.88,2.88,0,1,1,2.88,2.9A2.89,2.89,0,0,1,34.38,38.7Z"/><path class="cls-3" d="M26.8,30.75A1.19,1.19,0,1,0,28,31.93,1.17,1.17,0,0,0,26.8,30.75Zm-2.88,1.18a2.88,2.88,0,1,1,2.88,2.9A2.89,2.89,0,0,1,23.92,31.93Z"/><path class="cls-3" d="M47.61,29.25a1.18,1.18,0,1,0,1.18,1.18A1.17,1.17,0,0,0,47.61,29.25Zm-2.88,1.18a2.88,2.88,0,1,1,2.88,2.9A2.89,2.89,0,0,1,44.73,30.43Z"/><path class="cls-3" d="M46.76,32.47,39.82,38.7l-1.13-1.28,6.93-6.23Z"/><path class="cls-3" d="M25.52,33.33l-6.93,6.23-1.14-1.28,6.94-6.23Z"/><path class="cls-3" d="M27.76,32.47,34.7,38.7l1.14-1.28L28.9,31.19Z"/><path class="cls-4" d="M71.23,27.3h3.66V43.18H71.23Z"/><path class="cls-4" d="M93.1,27.3V43.18h-3l-7.86-9.64v9.64H78.63V27.3h3l7.84,9.64V27.3Z"/><path class="cls-4" d="M100.1,30.29h-5v-3H108.8v3h-5V43.18H100.1Z"/><path class="cls-4" d="M120.82,43.18l-3-4.42h-3.36v4.42h-3.65V27.3h6.83a8.6,8.6,0,0,1,3.62.7,5.39,5.39,0,0,1,2.39,2,5.48,5.48,0,0,1,.84,3.06,5.22,5.22,0,0,1-3.25,5l3.54,5.1Zm-.07-10.12a2.47,2.47,0,0,0-.86-2,3.78,3.78,0,0,0-2.5-.73h-3v5.54h3a3.73,3.73,0,0,0,2.5-.73A2.49,2.49,0,0,0,120.75,33.06Z"/><path class="cls-4" d="M137.73,39.78h-7.32l-1.4,3.4h-3.74l7-15.88h3.61L143,43.18h-3.83ZM136.58,37l-2.5-6.08L131.58,37Z"/></svg>